{
  "accessors": [
    {
      "bufferView": 2,
      "componentType": 5126,
      "count": 4358,
      "max": [
        0.1535000056028366,
        0.4068000018596649,
        2.004300117492676
      ],
      "min": [
        -0.1535000056028366,
        -0.1128000020980835,
        0.9570000171661377
      ],
      "type": "VEC3"
    },
    {
      "bufferView": 2,
      "byteOffset": 52296,
      "componentType": 5126,
      "count": 4358,
      "max": [
        0.9999603033065796,
        0.9999279975891113,
        0.9999194145202637
      ],
      "min": [
        -0.9998324513435364,
        -0.9997758269309998,
        -0.9997262358665466
      ],
      "type": "VEC3"
    },
    {
      "bufferView": 1,
      "componentType": 5126,
      "count": 4358,
      "max": [
        0.9930999875068665,
        0.9983999729156494
      ],
      "min": [
        0.5813000202178955,
        0.008799999952316284
      ],
      "type": "VEC2"
    },
    {
      "bufferView": 0,
      "componentType": 5125,
      "count": 18099,
      "type": "SCALAR"
    },
    {
      "bufferView": 2,
      "byteOffset": 104592,
      "componentType": 5126,
      "count": 21396,
      "max": [
        1.5680999755859375,
        1.376099944114685,
        2.059799909591675
      ],
      "min": [
        -1.5680999755859375,
        -0.21770000457763672,
        -0.12929999828338623
      ],
      "type": "VEC3"
    },
    {
      "bufferView": 2,
      "byteOffset": 361344,
      "componentType": 5126,
      "count": 21396,
      "max": [
        1.0,
        1.0,
        1.0
      ],
      "min": [
        -1.0,
        -1.0,
        -1.0
      ],
      "type": "VEC3"
    },
    {
      "bufferView": 1,
      "byteOffset": 34864,
      "componentType": 5126,
      "count": 21396,
      "max": [
        0.9962000250816345,
        0.9969000220298767
      ],
      "min": [
        0.002199999988079071,
        0.003100000089034438
      ],
      "type": "VEC2"
    },
    {
      "bufferView": 0,
      "byteOffset": 72396,
      "componentType": 5125,
      "count": 86808,
      "type": "SCALAR"
    }
  ],
  "asset": {
    "extras": {
      "author": "kingjn (https://sketchfab.com/kingjn)",
      "license": "CC-BY-4.0 (http://creativecommons.org/licenses/by/4.0/)",
      "source": "https://sketchfab.com/3d-models/mobile-league-of-legends-wild-rift-ahri-a54451d24fa14b56a4bbcdf87e691442",
      "title": "Mobile - League Of Legends Wild Rift - Ahri"
    },
    "generator": "Sketchfab-14.85.0",
    "version": "2.0"
  },
  "bufferViews": [
    {
      "buffer": 0,
      "byteLength": 419628,
      "name": "floatBufferViews",
      "target": 34963
    },
    {
      "buffer": 0,
      "byteLength": 206032,
      "byteOffset": 419628,
      "byteStride": 8,
      "name": "floatBufferViews",
      "target": 34962
    },
    {
      "buffer": 0,
      "byteLength": 618096,
      "byteOffset": 625660,
      "byteStride": 12,
      "name": "floatBufferViews",
      "target": 34962
    }
  ],
  "buffers": [
    {
      "byteLength": 1243756,
      "uri": "scene.bin"
    }
  ],
  "images": [
    {
      "uri": "textures/Material__50_baseColor.png"
    }
  ],
  "materials": [
    {
      "doubleSided": true,
      "emissiveTexture": {
        "index": 0
      },
      "name": "Material__50",
      "pbrMetallicRoughness": {
        "baseColorTexture": {
          "index": 0
        },
        "metallicFactor": 0.0
      }
    }
  ],
  "meshes": [
    {
      "name": "Object_0",
      "primitives": [
        {
          "attributes": {
            "NORMAL": 1,
            "POSITION": 0,
            "TEXCOORD_0": 2
          },
          "indices": 3,
          "material": 0,
          "mode": 4
        }
      ]
    },
    {
      "name": "Object_1",
      "primitives": [
        {
          "attributes": {
            "NORMAL": 5,
            "POSITION": 4,
            "TEXCOORD_0": 6
          },
          "indices": 7,
          "material": 0,
          "mode": 4
        }
      ]
    }
  ],
  "nodes": [
    {
      "children": [
        1
      ],
      "matrix": [
        1.0,
        0.0,
        0.0,
        0.0,
        0.0,
        2.220446049250313e-16,
        -1.0,
        0.0,
        0.0,
        1.0,
        2.220446049250313e-16,
        0.0,
        0.0,
        0.0,
        0.0,
        1.0
      ],
      "name": "Sketchfab_model"
    },
    {
      "children": [
        2,
        3
      ],
      "name": "Ahri.obj.cleaner.materialmerger.gles"
    },
    {
      "mesh": 0,
      "name": "Object_2"
    },
    {
      "mesh": 1,
      "name": "Object_3"
    }
  ],
  "samplers": [
    {
      "magFilter": 9729,
      "minFilter": 9987,
      "wrapS": 10497,
      "wrapT": 10497
    }
  ],
  "scene": 0,
  "scenes": [
    {
      "name": "Sketchfab_Scene",
      "nodes": [
        0
      ]
    }
  ],
  "textures": [
    {
      "sampler": 0,
      "source": 0
    }
  ]
}
