{
  "accessors": [
    {
      "bufferView": 2,
      "componentType": 5126,
      "count": 1899,
      "max": [
        0.4301699995994568,
        0.2122199982404709,
        1.4654799699783325
      ],
      "min": [
        -0.4668999910354614,
        -0.7394199967384338,
        0.38609999418258667
      ],
      "type": "VEC3"
    },
    {
      "bufferView": 2,
      "byteOffset": 22788,
      "componentType": 5126,
      "count": 1899,
      "max": [
        0.9987835884094238,
        0.9993347525596619,
        0.9992235898971558
      ],
      "min": [
        -0.999639630317688,
        -0.9990270137786865,
        -0.997459352016449
      ],
      "type": "VEC3"
    },
    {
      "bufferView": 1,
      "componentType": 5126,
      "count": 1899,
      "max": [
        0.9799699783325195,
        0.9864100217819214
      ],
      "min": [
        0.01271000038832426,
        0.020179999992251396
      ],
      "type": "VEC2"
    },
    {
      "bufferView": 0,
      "componentType": 5125,
      "count": 9120,
      "type": "SCALAR"
    },
    {
      "bufferView": 2,
      "byteOffset": 45576,
      "componentType": 5126,
      "count": 4135,
      "max": [
        0.27226001024246216,
        -0.42243999242782593,
        1.275130033493042
      ],
      "min": [
        -0.15052999556064606,
        -0.7209200263023376,
        0.7973999977111816
      ],
      "type": "VEC3"
    },
    {
      "bufferView": 2,
      "byteOffset": 95196,
      "componentType": 5126,
      "count": 4135,
      "max": [
        0.9997326135635376,
        0.9992122650146484,
        0.9978489875793457
      ],
      "min": [
        -0.9999033808708191,
        -0.9997575879096985,
        -0.9995726346969604
      ],
      "type": "VEC3"
    },
    {
      "bufferView": 1,
      "byteOffset": 15192,
      "componentType": 5126,
      "count": 4135,
      "max": [
        0.9886900186538696,
        0.991379976272583
      ],
      "min": [
        0.009960000403225422,
        0.007199999876320362
      ],
      "type": "VEC2"
    },
    {
      "bufferView": 0,
      "byteOffset": 36480,
      "componentType": 5125,
      "count": 22476,
      "type": "SCALAR"
    },
    {
      "bufferView": 2,
      "byteOffset": 144816,
      "componentType": 5126,
      "count": 4787,
      "max": [
        0.37035998702049255,
        0.5857899785041809,
        1.0697499513626099
      ],
      "min": [
        -0.33107998967170715,
        -0.9179800152778625,
        -0.04489000141620636
      ],
      "type": "VEC3"
    },
    {
      "bufferView": 2,
      "byteOffset": 202260,
      "componentType": 5126,
      "count": 4787,
      "max": [
        0.9997637867927551,
        0.9986206293106079,
        0.9999602437019348
      ],
      "min": [
        -0.9998833537101746,
        -0.9998427629470825,
        -0.9999303817749023
      ],
      "type": "VEC3"
    },
    {
      "bufferView": 1,
      "byteOffset": 48272,
      "componentType": 5126,
      "count": 4787,
      "max": [
        0.9831299781799316,
        0.9999300241470337
      ],
      "min": [
        7.000000186963007e-05,
        7.000000186963007e-05
      ],
      "type": "VEC2"
    },
    {
      "bufferView": 0,
      "byteOffset": 126384,
      "componentType": 5125,
      "count": 24912,
      "type": "SCALAR"
    },
    {
      "bufferView": 2,
      "byteOffset": 259704,
      "componentType": 5126,
      "count": 24,
      "max": [
        1.0,
        1.0,
        1.0
      ],
      "min": [
        -1.0,
        -1.0,
        -1.0
      ],
      "type": "VEC3"
    },
    {
      "bufferView": 2,
      "byteOffset": 259992,
      "componentType": 5126,
      "count": 24,
      "max": [
        1.0,
        1.0,
        1.0
      ],
      "min": [
        -1.0,
        -1.0,
        -1.0
      ],
      "type": "VEC3"
    },
    {
      "bufferView": 1,
      "byteOffset": 86568,
      "componentType": 5126,
      "count": 24,
      "max": [
        0.9821400046348572,
        0.9821400046348572
      ],
      "min": [
        0.01785999909043312,
        0.01785999909043312
      ],
      "type": "VEC2"
    },
    {
      "bufferView": 0,
      "byteOffset": 226032,
      "componentType": 5125,
      "count": 36,
      "type": "SCALAR"
    },
    {
      "bufferView": 2,
      "byteOffset": 260280,
      "componentType": 5126,
      "count": 4,
      "max": [
        1.0,
        1.0,
        0.0
      ],
      "min": [
        -1.0,
        -1.0,
        0.0
      ],
      "type": "VEC3"
    },
    {
      "bufferView": 2,
      "byteOffset": 260328,
      "componentType": 5126,
      "count": 4,
      "max": [
        0.0,
        0.0,
        1.0
      ],
      "min": [
        0.0,
        0.0,
        1.0
      ],
      "type": "VEC3"
    },
    {
      "bufferView": 1,
      "byteOffset": 86760,
      "componentType": 5126,
      "count": 4,
      "max": [
        0.998009979724884,
        0.998009979724884
      ],
      "min": [
        0.001990000018849969,
        0.001990000018849969
      ],
      "type": "VEC2"
    },
    {
      "bufferView": 0,
      "byteOffset": 226176,
      "componentType": 5125,
      "count": 6,
      "type": "SCALAR"
    },
    {
      "bufferView": 2,
      "byteOffset": 260376,
      "componentType": 5126,
      "count": 2102,
      "max": [
        8.549449920654297,
        1.0760400295257568,
        -0.0
      ],
      "min": [
        -0.6324899792671204,
        -1.0194400548934937,
        -5.8842902183532715
      ],
      "type": "VEC3"
    },
    {
      "bufferView": 2,
      "byteOffset": 285600,
      "componentType": 5126,
      "count": 2102,
      "max": [
        0.9497027397155762,
        1.0,
        1.0
      ],
      "min": [
        -1.0,
        -1.0,
        -1.0
      ],
      "type": "VEC3"
    },
    {
      "bufferView": 1,
      "byteOffset": 86792,
      "componentType": 5126,
      "count": 2102,
      "max": [
        0.9673200249671936,
        0.9949899911880493
      ],
      "min": [
        0.00419999985024333,
        0.018780000507831573
      ],
      "type": "VEC2"
    },
    {
      "bufferView": 0,
      "byteOffset": 226200,
      "componentType": 5125,
      "count": 3144,
      "type": "SCALAR"
    }
  ],
  "asset": {
    "extras": {
      "author": "SearKitchen (https://sketchfab.com/searkitchen)",
      "license": "CC-BY-4.0 (http://creativecommons.org/licenses/by/4.0/)",
      "source": "https://sketchfab.com/3d-models/blender-chan-6835f0d60e0c4813812c0247e3b73da7",
      "title": "Blender Chan!"
    },
    "generator": "Sketchfab-12.68.0",
    "version": "2.0"
  },
  "bufferViews": [
    {
      "buffer": 0,
      "byteLength": 238776,
      "name": "floatBufferViews",
      "target": 34963
    },
    {
      "buffer": 0,
      "byteLength": 103608,
      "byteOffset": 238776,
      "byteStride": 8,
      "name": "floatBufferViews",
      "target": 34962
    },
    {
      "buffer": 0,
      "byteLength": 310824,
      "byteOffset": 342384,
      "byteStride": 12,
      "name": "floatBufferViews",
      "target": 34962
    }
  ],
  "buffers": [
    {
      "byteLength": 653208,
      "uri": "scene.bin"
    }
  ],
  "extensionsUsed": [
    "KHR_materials_unlit"
  ],
  "images": [
    {
      "uri": "textures/item_baseColor.png"
    },
    {
      "uri": "textures/grid_baseColor.png"
    },
    {
      "uri": "textures/Cube_baseColor.png"
    },
    {
      "uri": "textures/Hair_baseColor.png"
    },
    {
      "uri": "textures/Face_baseColor.png"
    },
    {
      "uri": "textures/Body_baseColor.png"
    }
  ],
  "materials": [
    {
      "alphaMode": "BLEND",
      "doubleSided": true,
      "extensions": {
        "KHR_materials_unlit": {}
      },
      "name": "item",
      "pbrMetallicRoughness": {
        "baseColorFactor": [
          1.0,
          1.0,
          1.0,
          0.9
        ],
        "baseColorTexture": {
          "index": 0
        },
        "metallicFactor": 0.0
      }
    },
    {
      "alphaMode": "BLEND",
      "doubleSided": true,
      "extensions": {
        "KHR_materials_unlit": {}
      },
      "name": "grid",
      "pbrMetallicRoughness": {
        "baseColorTexture": {
          "index": 1
        },
        "metallicFactor": 0.0
      }
    },
    {
      "doubleSided": true,
      "extensions": {
        "KHR_materials_unlit": {}
      },
      "name": "Cube",
      "pbrMetallicRoughness": {
        "baseColorTexture": {
          "index": 2
        },
        "metallicFactor": 0.0
      }
    },
    {
      "doubleSided": true,
      "extensions": {
        "KHR_materials_unlit": {}
      },
      "name": "Hair",
      "pbrMetallicRoughness": {
        "baseColorTexture": {
          "index": 3
        },
        "metallicFactor": 0.0
      }
    },
    {
      "doubleSided": true,
      "extensions": {
        "KHR_materials_unlit": {}
      },
      "name": "Face",
      "pbrMetallicRoughness": {
        "baseColorTexture": {
          "index": 4
        },
        "metallicFactor": 0.0
      }
    },
    {
      "doubleSided": true,
      "extensions": {
        "KHR_materials_unlit": {}
      },
      "name": "Body",
      "pbrMetallicRoughness": {
        "baseColorTexture": {
          "index": 5
        },
        "metallicFactor": 0.0
      }
    }
  ],
  "meshes": [
    {
      "name": "hair_0",
      "primitives": [
        {
          "attributes": {
            "NORMAL": 1,
            "POSITION": 0,
            "TEXCOORD_0": 2
          },
          "indices": 3,
          "material": 3,
          "mode": 4
        }
      ]
    },
    {
      "name": "hair_1",
      "primitives": [
        {
          "attributes": {
            "NORMAL": 5,
            "POSITION": 4,
            "TEXCOORD_0": 6
          },
          "indices": 7,
          "material": 4,
          "mode": 4
        }
      ]
    },
    {
      "name": "hair_2",
      "primitives": [
        {
          "attributes": {
            "NORMAL": 9,
            "POSITION": 8,
            "TEXCOORD_0": 10
          },
          "indices": 11,
          "material": 5,
          "mode": 4
        }
      ]
    },
    {
      "name": "Cube_0",
      "primitives": [
        {
          "attributes": {
            "NORMAL": 13,
            "POSITION": 12,
            "TEXCOORD_0": 14
          },
          "indices": 15,
          "material": 2,
          "mode": 4
        }
      ]
    },
    {
      "name": "grid_0",
      "primitives": [
        {
          "attributes": {
            "NORMAL": 17,
            "POSITION": 16,
            "TEXCOORD_0": 18
          },
          "indices": 19,
          "material": 1,
          "mode": 4
        }
      ]
    },
    {
      "name": "item_0",
      "primitives": [
        {
          "attributes": {
            "NORMAL": 21,
            "POSITION": 20,
            "TEXCOORD_0": 22
          },
          "indices": 23,
          "material": 0,
          "mode": 4
        }
      ]
    }
  ],
  "nodes": [
    {
      "children": [
        1
      ],
      "matrix": [
        1.0,
        0.0,
        0.0,
        0.0,
        0.0,
        2.220446049250313e-16,
        -1.0,
        0.0,
        0.0,
        1.0,
        2.220446049250313e-16,
        0.0,
        0.0,
        0.0,
        0.0,
        1.0
      ],
      "name": "Sketchfab_model"
    },
    {
      "children": [
        2,
        6,
        8,
        10
      ],
      "name": "Root"
    },
    {
      "children": [
        3,
        4,
        5
      ],
      "matrix": [
        0.9876400000000001,
        -0.15672000000000003,
        0.0,
        0.0,
        0.15672000000000003,
        0.9876400000000001,
        0.0,
        0.0,
        0.0,
        0.0,
        1.0,
        0.0,
        0.06611000000000002,
        -0.003570000000000001,
        0.0,
        1.0
      ],
      "name": "hair"
    },
    {
      "mesh": 0,
      "name": "hair_0"
    },
    {
      "mesh": 1,
      "name": "hair_1"
    },
    {
      "mesh": 2,
      "name": "hair_2"
    },
    {
      "children": [
        7
      ],
      "matrix": [
        0.36386000000000007,
        -0.05774000000000001,
        0.0,
        0.0,
        0.05774000000000001,
        0.36386000000000007,
        0.0,
        0.0,
        0.0,
        0.0,
        0.36841000000000007,
        0.0,
        -0.04524000000000001,
        -0.83847,
        0.37504000000000004,
        1.0
      ],
      "name": "Cube"
    },
    {
      "mesh": 3,
      "name": "Cube_0"
    },
    {
      "children": [
        9
      ],
      "matrix": [
        1.3179199999999998,
        0.0,
        0.0,
        0.0,
        0.0,
        1.3179199999999998,
        0.0,
        0.0,
        0.0,
        0.0,
        1.3179199999999998,
        0.0,
        0.0,
        -0.5581,
        0.0,
        1.0
      ],
      "name": "grid"
    },
    {
      "mesh": 4,
      "name": "grid_0"
    },
    {
      "children": [
        11
      ],
      "matrix": [
        0.45051,
        0.0,
        0.0,
        0.0,
        0.0,
        -0.0,
        1.4515699999999998,
        0.0,
        0.0,
        -0.40984000000000004,
        -0.0,
        0.0,
        -1.7691800000000002,
        -2.16835,
        1.4758899999999997,
        1.0
      ],
      "name": "item"
    },
    {
      "mesh": 5,
      "name": "item_0"
    }
  ],
  "samplers": [
    {
      "magFilter": 9729,
      "minFilter": 9987,
      "wrapS": 10497,
      "wrapT": 10497
    },
    {
      "magFilter": 9729,
      "minFilter": 9987,
      "wrapS": 33648,
      "wrapT": 10497
    }
  ],
  "scene": 0,
  "scenes": [
    {
      "name": "Sketchfab_Scene",
      "nodes": [
        0
      ]
    }
  ],
  "textures": [
    {
      "sampler": 0,
      "source": 0
    },
    {
      "sampler": 1,
      "source": 1
    },
    {
      "sampler": 0,
      "source": 2
    },
    {
      "sampler": 0,
      "source": 3
    },
    {
      "sampler": 0,
      "source": 4
    },
    {
      "sampler": 0,
      "source": 5
    }
  ]
}
